<svg xmlns="http://www.w3.org/2000/svg" viewBox="0 0 354 80"><defs><style>.cls-1{fill:#fff;}.cls-2{fill:#238b96;}.cls-3{fill:#4f9ba5;}.cls-4{fill:#90bdc4;}.cls-5{fill:#9d9d9c;}</style></defs><title>Progue_Logo_Tag_RGB</title><g id="Layer_2" data-name="Layer 2"><g id="description"><path class="cls-1" d="M0,0H334.3A19.7,19.7,0,0,1,354,19.7V80H19.7A19.7,19.7,0,0,1,0,60.3Z"/><path class="cls-2" d="M115.51,45.75a5.68,5.68,0,0,0,2.66-.68V43.93a27.41,27.41,0,0,1-3.75,1.82Z"/><path class="cls-3" d="M118.17,45.75v-.68a5.68,5.68,0,0,1-2.66.68Z"/><path class="cls-3" d="M154.28,40V28.75A5.76,5.76,0,0,1,160,23H139.68a5.76,5.76,0,0,1,5.68,5.75V35h0v5a5.74,5.74,0,0,1-1.15,3.42v1.93c-.35.15-.71.28-1.07.4H160A5.76,5.76,0,0,1,154.28,40Z"/><path class="cls-4" d="M211.87,23H187.79a5.76,5.76,0,0,1,5.75,5.76V40a5.76,5.76,0,0,1-5.75,5.75h24.08A5.76,5.76,0,0,0,217.63,40V28.75A5.76,5.76,0,0,0,211.87,23Z"/><path class="cls-3" d="M193.54,40V28.75A5.76,5.76,0,0,0,187.79,23h-24.1a5.76,5.76,0,0,1,5.76,5.76V40a5.76,5.76,0,0,1-5.76,5.75h24.1A5.76,5.76,0,0,0,193.54,40Z"/><path class="cls-3" d="M35.69,46.88a9.34,9.34,0,0,1-7.48-4V55.19H24.75V23h3.46v1.84a14.12,14.12,0,0,1,7.89-2.35c6.61,0,9.14,6.46,9.14,12.14C45.24,40.65,42.57,46.88,35.69,46.88Zm-.51-21.51a12.29,12.29,0,0,0-7,2.31V38.06c0,2.82,4.57,5.91,7.16,5.91,5,0,6.37-4.76,6.37-8.91S40.35,25.37,35.18,25.37Z"/><path class="cls-3" d="M51.29,29.52V46.23H47.83V23h3.46v3.69c.92-2.86,4.2-4.29,7-4.29v3.41C55.72,25.83,52.35,27,51.29,29.52Z"/><path class="cls-4" d="M66.48,24.91c-5.63,0-7.34,4.94-7.34,9.69s1.89,9.74,7.34,9.74,7.34-5,7.34-9.74S72.11,24.91,66.48,24.91Zm15,19.15a5.12,5.12,0,0,1,.89-2,5.63,5.63,0,0,1-.4-2V37a10.08,10.08,0,0,1-1.77-5.95c0-4.23,1.78-6.94,5-8.06H70.56c4.66,1.57,6.86,6,6.86,11.56,0,5.14-2,9.36-6,11.2H83C82.17,45.43,81.52,44.91,81.52,44.06Z"/><path class="cls-3" d="M82,37v3a5.63,5.63,0,0,0,.4,2,27.71,27.71,0,0,1,2.07-2.88A7.44,7.44,0,0,1,82,37Z"/><path class="cls-3" d="M89.1,38.38c3.69,0,5.26-4,5.26-7.15s-1.71-6.65-5.26-6.65S84,28.18,84,31.23,85.4,38.38,89.1,38.38Z"/><path class="cls-3" d="M106.45,23v3.86a5.74,5.74,0,0,1,5.4-3.86Z"/><path class="cls-3" d="M99.48,23v1.5c-1.25-.09-2.49-.19-3.74-.32a12,12,0,0,1,2.49,6.88c0,5.49-3.46,9.18-9.09,9.18a11.19,11.19,0,0,1-3-.41,6.39,6.39,0,0,0-.83,1.84c0,1.66,2.22,1.66,3.42,1.66,3.18,0,8.09-.1,10.27,2.43h6.88c-2.21-1.52-2.89-4.47-2.89-7.69V23Z"/><path class="cls-3" d="M130.19,29.82a8.74,8.74,0,0,0-.57,3h.57Z"/><path class="cls-3" d="M130.19,39.12V35h-.71A11.75,11.75,0,0,0,130.19,39.12Z"/><path class="cls-3" d="M121.63,23V45.75h10.08C127.81,44,126,40,126,34.78c0-5.44,2.18-10.23,7-11.79Z"/><path class="cls-3" d="M115.51,23a5.69,5.69,0,0,1,2.66.69V23Z"/><path class="cls-2" d="M115.51,23h-3.66a5.74,5.74,0,0,0-5.4,3.86V38.2c0,3.42.83,5.68,4.75,5.68a11.88,11.88,0,0,0,7-2.77V23.68A5.69,5.69,0,0,0,115.51,23Z"/><path class="cls-2" d="M139.68,23c4,1.48,5.66,5.79,5.68,10.3V28.75A5.76,5.76,0,0,0,139.68,23Zm-3.41,1.91c-2.92,0-5.11,2.27-6.08,4.91v3h12.08C142.27,29.29,140.37,24.91,136.27,24.91Zm-6.08,14.21A7,7,0,0,0,137.1,44a25,25,0,0,0,7.11-1.11v.56A5.74,5.74,0,0,0,145.36,40V35H130.19Z"/><path class="cls-2" d="M160,23h3.66a5.75,5.75,0,0,1,5.75,5.75V40a5.75,5.75,0,0,1-5.75,5.75H160A5.75,5.75,0,0,1,154.28,40V28.75A5.76,5.76,0,0,1,160,23Z"/><path class="cls-5" d="M50,55.08H48.92v3.14H48v-8H50.5c1.54,0,2.74.54,2.74,2.25S51.56,55.08,50,55.08Zm.33-4.22a6.64,6.64,0,0,0-1.41.08V54.4c.39,0,.79.06,1.19.06a2,2,0,0,0,2.17-2C52.28,51.24,51.45,50.86,50.33,50.86Z"/><path class="cls-5" d="M55.25,53.69v4.53h-.93v-6.3h.93v1a2,2,0,0,1,1.89-1.17v.93A2.07,2.07,0,0,0,55.25,53.69Z"/><path class="cls-5" d="M60.85,58.36c-2,0-2.94-1.43-2.94-3.31s.92-3.3,2.94-3.3,3,1.39,3,3.3S62.85,58.36,60.85,58.36Zm0-5.92c-1.53,0-2,1.34-2,2.63s.51,2.63,2,2.63,2-1.36,2-2.63S62.37,52.44,60.85,52.44Z"/><path class="cls-5" d="M67.06,50.17c-1,0-.9,1-.9,1.75h2v.69h-2v5.61h-.94V52.61h-.9v-.69h.9v-.2c0-1.11.45-2.22,1.73-2.22a2.61,2.61,0,0,1,1.29.3v.52A6,6,0,0,0,67.06,50.17Z"/><path class="cls-5" d="M69.53,55.18c0,1.27.66,2.43,2.06,2.43a6.71,6.71,0,0,0,1.93-.31V58a5.53,5.53,0,0,1-2,.38c-2,0-2.92-1.34-2.92-3.24s.88-3.35,2.86-3.35c1.7,0,2.4,1.44,2.4,3v.45Zm1.83-2.74a2.06,2.06,0,0,0-1.8,2.15H73C73,53.63,72.48,52.44,71.36,52.44Z"/><path class="cls-5" d="M76.77,58.36a4.17,4.17,0,0,1-2-.63V57a4.66,4.66,0,0,0,2,.67,1.17,1.17,0,0,0,1.3-1.11c0-1.45-3.33-.8-3.33-3a1.91,1.91,0,0,1,2.1-1.8,3.71,3.71,0,0,1,1.71.47v.56a4.31,4.31,0,0,0-1.72-.34,1.07,1.07,0,0,0-1.2,1c0,1.31,3.36.85,3.36,3A2,2,0,0,1,76.77,58.36Z"/><path class="cls-5" d="M81.83,58.36a4.2,4.2,0,0,1-2-.63V57a4.76,4.76,0,0,0,2,.67,1.17,1.17,0,0,0,1.3-1.11c0-1.45-3.32-.8-3.32-3a1.9,1.9,0,0,1,2.1-1.8,3.71,3.71,0,0,1,1.71.47v.56a4.32,4.32,0,0,0-1.73-.34,1.08,1.08,0,0,0-1.2,1c0,1.31,3.37.85,3.37,3A2,2,0,0,1,81.83,58.36Z"/><path class="cls-5" d="M85.79,50.81a.57.57,0,0,1-.6-.54.58.58,0,0,1,.55-.6.59.59,0,0,1,.6.55A.58.58,0,0,1,85.79,50.81Zm-.52,7.41v-6.3h.94v6.3Z"/><path class="cls-5" d="M90.39,58.36c-2,0-2.94-1.43-2.94-3.31s.93-3.3,2.94-3.3,3,1.39,3,3.3S92.39,58.36,90.39,58.36Zm0-5.92c-1.52,0-2,1.34-2,2.63s.51,2.63,2,2.63,2-1.36,2-2.63S91.92,52.44,90.39,52.44Z"/><path class="cls-5" d="M98.7,58.22V54.1c0-.92-.23-1.54-1.29-1.54a3.5,3.5,0,0,0-1.89.63v5h-.94v-6.3h.94v.5a6.07,6.07,0,0,1,2.25-.66c1.48,0,1.87,1.11,1.87,2.38v4.08Z"/><path class="cls-5" d="M104.91,58.28c-.48,0-.66-.44-.59-.86a2.1,2.1,0,0,1-1.92.94,1.68,1.68,0,0,1-1.7-1.71c0-1.92,2.06-2.37,3.6-2.44v-.37a1.25,1.25,0,0,0-1.23-1.4,6.18,6.18,0,0,0-1.62.35v-.44a3.6,3.6,0,0,1,1.87-.6,1.82,1.82,0,0,1,1.92,1.9v3a3.82,3.82,0,0,0,.1,1.08c.08.11.23.09.36.08v.46C105.43,58.24,105.18,58.28,104.91,58.28Zm-.62-3.4c-.93,0-2.66.27-2.66,1.5,0,.76.35,1.23,1.16,1.23,1.29,0,1.5-1.13,1.5-2.18Z"/><path class="cls-5" d="M106.93,58.22V49.5h.93v8.72Z"/><path class="cls-5" d="M115.23,58.38c-2.35,0-3.64-2-3.64-4.19s1.38-4.14,3.62-4.14a3.79,3.79,0,0,1,2.43.77v.62a4.17,4.17,0,0,0-2.39-.74c-2,0-2.69,1.86-2.69,3.56s.83,3.48,2.79,3.48a4.12,4.12,0,0,0,1.58-.31V54.61h.94v3.2A6.49,6.49,0,0,1,115.23,58.38Z"/><path class="cls-5" d="M123.38,58.22v-.63a5.37,5.37,0,0,1-2.26.79c-1.47,0-1.86-1.11-1.86-2.38V51.92h.94V56c0,.93.22,1.54,1.29,1.54a3.27,3.27,0,0,0,1.89-.75V51.92h.94v6.3Z"/><path class="cls-5" d="M126.6,50.81a.57.57,0,0,1-.6-.54.58.58,0,1,1,1.15-.05A.57.57,0,0,1,126.6,50.81Zm-.51,7.41v-6.3H127v6.3Z"/><path class="cls-5" d="M132.92,58.22v-.63a3.39,3.39,0,0,1-2.13.77c-1.79,0-2.48-1.76-2.48-3.29s.73-3.32,2.59-3.32a2.53,2.53,0,0,1,2,1.07V49.5h.94v8.72Zm0-4.08c0-.76-1.24-1.6-1.94-1.6-1.35,0-1.73,1.29-1.73,2.41s.38,2.63,1.78,2.63a3,3,0,0,0,1.89-.75Z"/><path class="cls-5" d="M139.2,58.28c-.49,0-.66-.44-.59-.86a2.1,2.1,0,0,1-1.92.94A1.68,1.68,0,0,1,135,56.65c0-1.92,2.07-2.37,3.61-2.44v-.37a1.25,1.25,0,0,0-1.23-1.4,6.34,6.34,0,0,0-1.63.35v-.44a3.67,3.67,0,0,1,1.88-.6,1.82,1.82,0,0,1,1.92,1.9l0,3a3.82,3.82,0,0,0,.1,1.08c.09.11.24.09.37.08v.46C139.71,58.24,139.46,58.28,139.2,58.28Zm-.62-3.4c-.93,0-2.66.27-2.66,1.5,0,.76.35,1.23,1.15,1.23,1.29,0,1.51-1.13,1.51-2.18Z"/><path class="cls-5" d="M145.33,58.22V54.1c0-.92-.23-1.54-1.29-1.54a3.53,3.53,0,0,0-1.89.63v5h-.94v-6.3h.94v.5a6.07,6.07,0,0,1,2.25-.66c1.48,0,1.87,1.11,1.87,2.38v4.08Z"/><path class="cls-5" d="M150.35,58.36c-1.95,0-2.92-1.42-2.92-3.24s.91-3.37,3-3.38a3.45,3.45,0,0,1,1.83.57v.59a3.91,3.91,0,0,0-1.8-.46c-1.53,0-2.07,1.36-2.07,2.68s.6,2.49,2.07,2.49a6.65,6.65,0,0,0,1.92-.31V58A6,6,0,0,1,150.35,58.36Z"/><path class="cls-5" d="M153.83,55.18a2.15,2.15,0,0,0,2.07,2.43,6.71,6.71,0,0,0,1.93-.31V58a5.53,5.53,0,0,1-2,.38c-2,0-2.92-1.34-2.92-3.24s.88-3.35,2.86-3.35c1.7,0,2.4,1.44,2.4,3v.45Zm1.84-2.74a2.06,2.06,0,0,0-1.8,2.15h3.43C157.3,53.63,156.79,52.44,155.67,52.44Z"/><path class="cls-5" d="M166.52,58.21c-.15-.2-.3-.4-.44-.62a4.05,4.05,0,0,1-2.44.82,2.24,2.24,0,0,1-2.35-2.27,2.87,2.87,0,0,1,1.91-2.45,3.23,3.23,0,0,1-.85-2,1.78,1.78,0,0,1,2-1.72c1,0,1.89.47,1.89,1.56s-1,1.73-1.83,2.12l2.05,2.82c.21-.22.43-.45.63-.68l.28.15a7.91,7.91,0,0,1-.63,1c.36.45.77.85,1.16,1.28Zm-3-4.05a1.82,1.82,0,0,0,.85,3.51,2.54,2.54,0,0,0,1.35-.53C164.92,56.19,164.19,55.16,163.49,54.16Zm.87-3.59a1,1,0,0,0-1,1,3,3,0,0,0,.71,1.69c.57-.44,1.2-.94,1.2-1.72A.91.91,0,0,0,164.36,50.57Z"/><path class="cls-5" d="M171.92,58.22v-8h4.68v.65h-3.74V53.8h3.42v.63h-3.42v3.12h3.86v.67Z"/><path class="cls-5" d="M181.55,58.22l-1.78-2.67-1.87,2.67H177l2.35-3.15-2.24-3.15h1.22L180,54.43l1.75-2.51h.83l-2.18,3,2.34,3.31Z"/><path class="cls-5" d="M186.54,58.39a2.53,2.53,0,0,1-2-1.07v3.33h-.94V51.92h.94v.5a3.86,3.86,0,0,1,2.14-.63c1.79,0,2.47,1.75,2.47,3.29S188.41,58.39,186.54,58.39Zm-.13-5.83a3.34,3.34,0,0,0-1.89.63V56c0,.77,1.24,1.61,1.94,1.61,1.35,0,1.72-1.29,1.72-2.42S187.81,52.56,186.41,52.56Z"/><path class="cls-5" d="M190.81,55.18c0,1.27.66,2.43,2.07,2.43a6.65,6.65,0,0,0,1.92-.31V58a5.49,5.49,0,0,1-2,.38c-2,0-2.91-1.34-2.91-3.24s.87-3.35,2.85-3.35c1.7,0,2.4,1.44,2.4,3v.45Zm1.84-2.74a2.06,2.06,0,0,0-1.8,2.15h3.43C194.28,53.63,193.76,52.44,192.65,52.44Z"/><path class="cls-5" d="M197.37,53.69v4.53h-.94v-6.3h.94v1a1.93,1.93,0,0,1,1.88-1.17v.93A2,2,0,0,0,197.37,53.69Z"/><path class="cls-5" d="M202.47,58.36c-1.35,0-1.73-.67-1.73-2V52.61h-.9v-.46a1.86,1.86,0,0,0,1.4-1.55l.44-.1v1.42h2v.69h-2v3.74c0,.68.07,1.33.91,1.33a5.14,5.14,0,0,0,1.17-.15v.4A2.64,2.64,0,0,1,202.47,58.36Z"/><path class="cls-5" d="M205.12,50.81a.57.57,0,0,1-.6-.54.58.58,0,0,1,.55-.6.59.59,0,0,1,.6.55A.58.58,0,0,1,205.12,50.81Zm-.51,7.41v-6.3h.93v6.3Z"/><path class="cls-5" d="M209,58.36a4.17,4.17,0,0,1-2-.63V57a4.67,4.67,0,0,0,2,.67,1.18,1.18,0,0,0,1.31-1.11c0-1.45-3.33-.8-3.33-3a1.91,1.91,0,0,1,2.1-1.8,3.71,3.71,0,0,1,1.71.47v.56a4.31,4.31,0,0,0-1.72-.34,1.07,1.07,0,0,0-1.2,1c0,1.31,3.36.85,3.36,3A2,2,0,0,1,209,58.36Z"/><path class="cls-5" d="M212.8,55.18c0,1.27.66,2.43,2.06,2.43a6.66,6.66,0,0,0,1.93-.31V58a5.49,5.49,0,0,1-2,.38c-2,0-2.91-1.34-2.91-3.24s.87-3.35,2.85-3.35c1.7,0,2.4,1.44,2.4,3v.45Zm1.84-2.74a2.06,2.06,0,0,0-1.8,2.15h3.43C216.27,53.63,215.75,52.44,214.64,52.44Z"/></g></g></svg>